<svg 
 xmlns="http://www.w3.org/2000/svg"
 xmlns:xlink="http://www.w3.org/1999/xlink"
 width="20px" height="24px">
<path fill-rule="evenodd"  fill="rgb(193, 193, 193)"
 d="M20.000,22.216 C20.000,23.201 19.193,24.000 18.197,24.000 C17.775,24.000 17.404,23.834 17.097,23.594 C17.089,23.590 17.082,23.584 17.074,23.579 C16.946,23.476 16.844,23.357 16.748,23.223 L11.644,16.274 C10.677,16.651 9.627,16.865 8.524,16.865 C3.816,16.865 -0.000,13.089 -0.000,8.432 C-0.000,3.775 3.816,-0.000 8.524,-0.000 C13.232,-0.000 17.049,3.775 17.049,8.432 C17.049,10.738 16.112,12.825 14.596,14.347 L19.427,20.925 C19.776,21.250 20.000,21.704 20.000,22.216 ZM8.524,2.645 C5.293,2.645 2.674,5.236 2.674,8.432 C2.674,11.628 5.293,14.219 8.524,14.219 C11.755,14.219 14.374,11.628 14.374,8.432 C14.374,5.236 11.755,2.645 8.524,2.645 Z"/>
</svg>